<?xml version="1.0" encoding="UTF-8" standalone="no"?>
<!-- Created with Inkscape (http://www.inkscape.org/) -->

<svg
   xmlns:dc="http://purl.org/dc/elements/1.1/"
   xmlns:cc="http://creativecommons.org/ns#"
   xmlns:rdf="http://www.w3.org/1999/02/22-rdf-syntax-ns#"
   xmlns:svg="http://www.w3.org/2000/svg"
   xmlns="http://www.w3.org/2000/svg"
   xmlns:sodipodi="http://sodipodi.sourceforge.net/DTD/sodipodi-0.dtd"
   xmlns:inkscape="http://www.inkscape.org/namespaces/inkscape"
   id="svg2994"
   sodipodi:docname="ornaments.svg"
   viewBox="0 0 649.28 636.99"
   version="1.1"
   inkscape:version="0.91 r13725">
  <defs
     id="defs7" />
  <sodipodi:namedview
     id="base"
     bordercolor="#666666"
     inkscape:pageshadow="2"
     inkscape:window-y="0"
     pagecolor="#ffffff"
     inkscape:window-height="926"
     inkscape:window-maximized="0"
     inkscape:zoom="0.6197314"
     inkscape:window-x="0"
     showgrid="false"
     borderopacity="1.0"
     inkscape:current-layer="layer1"
     inkscape:cx="384.1542"
     inkscape:cy="72.67643"
     inkscape:window-width="1220"
     inkscape:pageopacity="0.0"
     inkscape:document-units="px" />
  <g
     id="layer1"
     inkscape:label="Layer 1"
     inkscape:groupmode="layer"
     transform="translate(-55.36 -162.95)">
    <path
       id="path4099"
       style="block-progression:tb;text-indent:0;color:#000000;text-transform:none;fill:#cccccc"
       inkscape:connector-curvature="0"
       d="m253.06 163.03c-5.1719 0.23359-9.4336 0.96577-12.688 2.2812-0.28286 0.11435-0.44979 0.31197-0.71875 0.4375-0.3174 0.14121-0.61932 0.14654-0.9375 0.3125-6.2238 3.2463-13.28 11.057-21.219 22.438-7.939 11.38-16.666 26.352-25.719 43.812-0.29865 0.576-0.60692 1.2623-0.90625 1.8438-1.4946 0.60919-2.9908 1.1318-4.4375 2.0312-11.909 7.4042-22.414 24.036-31.781 46.469-20.224 13.466-34.534 26.934-39.531 40.031-0.60763 1.5926-0.87432 3.1657-1.1875 4.75-0.51231 0.40356-1.1178 0.84813-1.625 1.25-15.415 12.215-28.435 23.631-38.094 33.594-9.6585 9.9625-15.999 18.365-18 25.094-0.10715 0.36036-0.04438 0.67694-0.125 1.0312-0.06795 0.2749-0.22566 0.46466-0.28125 0.75-1.3424 6.89 0.36496 17.26 4.3125 30.562s10.212 29.473 18.219 47.438c0.26255 0.58908 0.60868 1.2508 0.875 1.8438-0.45602 1.5492-0.9886 3.057-1.1875 4.75-1.6357 13.923 4.8085 32.511 16.5 53.812-2.0832 24.214-0.46906 43.8 6.6562 55.875 0.87004 1.4744 1.9514 2.6694 3 3.9062-0.004 0.64688-0.0605 1.3894-0.0625 2.0312-0.0611 19.668 0.76427 36.956 2.5312 50.719 1.767 13.763 4.3931 23.96 8.4062 29.719 0.18321 0.26293 0.43319 0.3798 0.625 0.625 0.19884 0.26357 0.24806 0.55322 0.46875 0.8125 4.5498 5.3454 13.763 10.48 26.625 15.688 12.862 5.2076 29.369 10.403 48.406 15.344 0.62764 0.16289 1.3669 0.3064 2 0.46875 0.92693 1.3225 1.8004 2.6639 3 3.875 9.8693 9.9635 28.418 16.516 52.375 20.656 17.622 16.712 33.936 27.668 47.812 29.625 1.6795 0.23682 3.2684 0.13929 4.875 0.0937 0.51123 0.41274 1.0854 0.90448 1.5938 1.3125 15.339 12.31 29.357 22.457 41.219 29.656 11.862 7.1995 21.495 11.484 28.5 11.938 0.32997 0.0213 0.58534-0.0962 0.90625-0.0937 0.32096 0.008 0.57561 0.13558 0.90625 0.125 7.016-0.22442 16.753-4.1914 28.844-11s26.455-16.509 42.188-28.312c0.51198-0.38412 1.0789-0.86141 1.5938-1.25 1.6139 0.10038 3.2092 0.24555 4.9062 0.0625 13.939-1.5035 30.613-11.922 48.781-28.062 24.063-3.3575 42.816-9.2748 53-18.906 1.2348-1.1677 2.1263-2.494 3.0938-3.7812 0.6441-0.14294 1.3927-0.26258 2.0312-0.40625 19.188-4.3169 35.882-8.9648 48.906-13.75 13.025-4.7852 22.372-9.6184 27.094-14.812 0.22637-0.24901 0.29482-0.52735 0.5-0.78125 0.20496-0.24436 0.45972-0.36171 0.65625-0.625 4.1989-5.6252 7.1599-15.74 9.375-29.438s3.5755-30.935 4.1562-50.594c0.0189-0.64088 0.014-1.3853 0.0312-2.0312 1.0905-1.2036 2.2058-2.3649 3.125-3.8125 7.5137-11.833 9.7588-31.364 8.4688-55.625 12.379-20.907 19.43-39.282 18.25-53.25-0.14401-1.704-0.59263-3.2447-1-4.8125 0.27947-0.57164 0.63051-1.2132 0.90625-1.7812 8.5885-17.693 15.371-33.646 19.75-46.812 4.3795-13.167 6.4294-23.476 5.3125-30.406-0.053-0.32883-0.21157-0.55941-0.28125-0.875-0.0636-0.31473-0.01-0.58622-0.0937-0.90625-1.78-6.7901-7.8279-15.415-17.156-25.688-9.3283-10.272-21.961-22.101-36.969-34.812-0.49234-0.41699-1.0963-0.86241-1.5938-1.2812-0.26119-1.5987-0.44288-3.1958-1-4.8125-4.5666-13.252-18.446-27.195-38.219-41.312-8.6285-22.717-18.592-39.682-30.25-47.469-1.4178-0.94702-2.8998-1.5296-4.375-2.1875-0.28035-0.5912-0.5639-1.2892-0.84375-1.875-8.4784-17.746-16.718-32.961-24.281-44.594-7.5635-11.633-14.354-19.709-20.469-23.156-0.29325-0.16535-0.5817-0.16892-0.875-0.3125-0.28217-0.14445-0.45146-0.36782-0.75-0.5-6.4185-2.8419-16.934-3.451-30.781-2.5625-13.847 0.88849-30.986 3.3791-50.281 7.1875-0.63457 0.12525-1.3608 0.30942-2 0.4375-1.4103-0.79051-2.7668-1.6474-4.375-2.2188-13.211-4.6934-32.752-2.535-56.125 4.125-23.138-7.4165-42.613-10.197-55.969-5.9375-1.6244 0.51804-3.0033 1.3193-4.4375 2.0625-0.63894-0.14988-1.3657-0.35314-2-0.5-19.161-4.436-36.189-7.5039-50-8.8438-6.9055-0.66992-12.984-0.92109-18.156-0.6875zm0.0937 3.0312c4.9708-0.23147 10.976-0.004 17.781 0.65625 13.334 1.2936 29.93 4.2603 48.531 8.5312-5.0369 3.8255-8.4009 9.4454-9.5312 16.969-0.60361 4.0176-0.41654 8.7415 0.1875 13.844-8.3628 3.9842-16.772 8.0963-25.344 12.531-6.0692-4.0205-11.69-7.8768-16.531-11.406-4.5712-3.3326-8.5058-6.4017-12.031-9.3125 0.10409-11.063-0.73597-19.301-2.625-24.75-1.0239-2.9534-2.3724-5.2185-4.0938-6.6875 1.2079-0.13016 2.2911-0.31143 3.6562-0.375zm-9.5625 1.4688c1.0264-0.12155 1.9374 0.0316 2.75 0.40625 1.6252 0.74931 3.1816 2.6239 4.4062 6.1562 1.5401 4.4424 2.3568 11.616 2.4375 21.094-7.1685-6.2146-12.117-11.475-14.5-15.531-1.894-3.2234-2.3277-5.6208-1.8438-7.3438 0.24198-0.86148 0.71045-1.6414 1.4688-2.3438 0.61763-0.57203 1.5748-1.0578 2.5938-1.5312 0.95109-0.42022 1.8999-0.81297 2.6875-0.90625zm262.59 2.5c4.6013-0.0146 8.4506 0.30324 11.844 0.78125-1.7685 1.4121-3.1927 3.6127-4.3125 6.5312-2.0653 5.3828-3.1802 13.6-3.4375 24.656-3.6196 2.7953-7.633 5.7545-12.312 8.9375-4.9598 3.3737-10.731 7.0182-16.938 10.844-8.4117-4.7062-16.657-9.0624-24.875-13.312 0.77202-5.0853 1.0976-9.8363 0.625-13.875-0.88433-7.5568-4.0587-13.262-8.9688-17.25 18.733-3.6624 35.411-6.1109 48.781-6.9688 3.4116-0.2189 6.6234-0.33433 9.5938-0.34375zm-161.9 2.03c9.5767 0.30346 21.104 2.6006 33.938 6.4062-4.9133 1.5096-10.011 3.2273-15.219 5.0938-12.261-3.5118-24.073-6.6464-35.25-9.3438 0.29397-0.10346 0.5104-0.27866 0.8125-0.375 4.4006-1.4034 9.6843-1.9725 15.719-1.7812zm179.59 0.0312c0.80119 0.12151 1.7578 0.56272 2.7188 1.0312 0.976 0.49837 1.9127 1.0131 2.5 1.5938 0.73499 0.72669 1.1613 1.5061 1.375 2.375 0.42748 1.7378-0.0643 4.1214-2.0625 7.2812-2.5146 3.9765-7.6322 9.0849-15 15.062 0.38995-9.4702 1.4407-16.61 3.125-21 1.3392-3.4905 2.9449-5.3354 4.5938-6.0312 0.82441-0.34794 1.7281-0.46748 2.75-0.3125zm-100.78 1.25c6.0375 0.006 11.304 0.76626 15.656 2.3125 0.28956 0.10287 0.49954 0.2657 0.78125 0.375-11.252 2.3298-23.14 5.1113-35.5 8.2188-5.1455-2.036-10.168-3.9555-15.031-5.625 12.94-3.3806 24.519-5.2904 34.094-5.2812zm-189.43 0.41c0.006 2.2585 0.85789 4.7492 2.4375 7.4375 2.9186 4.9671 8.6525 10.944 17.125 18.031-0.0706 4.5824-0.28852 9.5602-0.71875 15.219-0.45416 5.9733-1.1544 12.774-2.0312 20-8.9357 3.6468-17.512 7.3759-25.969 11.156-3.4927-3.7715-6.9558-7.0088-10.406-9.1562-6.4608-4.021-12.945-5.0725-19.125-3.7188 8.8175-16.932 17.334-31.511 25-42.5 4.9863-7.1476 9.591-12.594 13.688-16.469zm89.719 2.4375c11.01 2.5964 22.753 5.6969 34.906 9.125-2.6375 0.98041-5.2372 1.909-7.9375 2.9688-11.915 4.6762-24.51 10.325-37.344 16.375-0.4622-4.4576-0.64001-8.5722-0.125-12 1.1965-7.9638 4.811-13.2 10.5-16.469zm120.47 1.9688c5.5863 3.4521 9.0321 8.7771 9.9688 16.781 0.40341 3.4472 0.14079 7.5841-0.46875 12.031-12.65-6.47-25.08-12.53-36.85-17.59-2.6714-1.1504-5.2328-2.1502-7.8438-3.2188 12.257-3.0297 24.1-5.7638 35.188-8zm89.781 0.5c3.9662 4.0064 8.3773 9.6039 13.125 16.906 7.296 11.222 15.311 26.062 23.562 43.25-6.1178-1.5365-12.586-0.67243-19.156 3.125-3.5192 2.034-7.1043 5.1563-10.719 8.8125-8.3361-4.0577-16.774-8.0603-25.594-12-0.64121-7.2557-1.1471-14.074-1.4062-20.062-0.24537-5.6697-0.26645-10.636-0.1875-15.219 8.6966-6.8055 14.609-12.6 17.688-17.469 1.6666-2.6355 2.6083-5.0865 2.6875-7.3438zm-150.03 1.5c4.9656 1.5935 10.071 3.3592 15.375 5.375-5.2044 1.3366-10.259 2.5439-15.594 4-5.2596-1.6215-10.24-3.0011-15.375-4.5 5.3827-1.8472 10.565-3.4413 15.594-4.875zm-20.48 6.59c4.9377 1.4196 9.8416 2.7749 14.906 4.3125-20.962 5.8306-42.623 12.429-64.25 19.75-0.2025-1.0755-0.22254-1.9752-0.375-3 13.088-6.19 25.922-11.966 38.031-16.719 3.9746-1.5599 7.8537-2.9684 11.688-4.3438zm40.656 0.65625c3.788 1.5002 7.6085 3.0295 11.531 4.7188 11.952 5.1467 24.617 11.353 37.5 17.969-0.18699 1.0251-0.22951 1.9254-0.46875 3-21.37-8.03-42.83-15.34-63.59-21.85 5.1116-1.3714 10.05-2.5861 15.031-3.8438zm-20.375 5.25c22.078 6.8271 45.107 14.7 67.969 23.281 0.0617 0.0232 0.12579 0.0393 0.1875 0.0625-1.7338 6.806-4.2954 14.414-8.125 23.125-0.80629 1.8341-1.9084 3.9228-2.8125 5.8438-16.689 9.0637-36.521 19.219-58.625 30.156-21.708-11.639-41.162-22.438-57.531-32.031-0.84576-1.9599-1.8751-4.0998-2.625-5.9688-3.5456-8.8373-5.8645-16.513-7.375-23.375 0.0532-0.018 0.10305-0.0445 0.15625-0.0625 23.152-7.8387 46.472-14.924 68.781-21.031zm-127.22 9.0625c3.1058 2.4935 6.4672 5.0944 10.281 7.875 4.5307 3.3031 9.7033 6.8754 15.281 10.594-4.5629 2.3812-9.1291 4.8583-13.719 7.3438-4.8322 1.8673-9.6382 3.7425-14.375 5.6562 0.79012-6.6692 1.418-12.932 1.8438-18.531 0.35813-4.7102 0.57067-8.9537 0.6875-12.938zm254 4.1875c-0.0122 3.9704 0.0467 8.2087 0.25 12.906 0.2427 5.608 0.67829 11.874 1.25 18.562-4.6618-2.0627-9.398-4.1054-14.156-6.125-4.5068-2.6345-9.0166-5.2206-13.5-7.75 5.7066-3.5403 10.982-6.9355 15.625-10.094 3.8953-2.6496 7.3504-5.1132 10.531-7.5zm-199.66 3.3125c0.14664 0.90963 0.16041 1.6819 0.34375 2.625-7.1827 2.4515-14.296 5.0456-21.406 7.625 7.1293-3.6532 14.088-6.9161 21.062-10.25zm145.12 2.375c6.8429 3.55 13.67 7.0339 20.656 10.906-7.0086-2.8041-14.009-5.6022-21.094-8.2812 0.21478-0.93997 0.26076-1.7176 0.4375-2.625zm-144.05 3.15c1.5658 6.9825 3.9033 14.691 7.4375 23.5 0.28349 0.70658 0.70329 1.5311 1 2.25-11.1-6.5685-20.83-12.59-29.531-18.219 7.0098-2.5429 14.013-5.1129 21.094-7.5312zm142.78 2.375c6.9929 2.6461 13.926 5.3881 20.844 8.1562-8.8959 5.351-18.824 11.098-30.156 17.312 0.32899-0.72823 0.77911-1.5656 1.0938-2.2812 3.8136-8.6749 6.4256-16.268 8.2188-23.188zm-167.44 6.4375c10.087 6.5774 21.763 13.761 35.156 21.625 5.9224 13.594 13.873 29.068 24.531 47.031-13.029 6.2187-25.278 12.17-39.938 18.938-14.65 6.7628-27.104 12.215-40.281 18.094-6.7529-19.75-13.375-35.837-19.875-49.156 2.7023-15.293 4.7752-28.839 6.3125-40.781 5.5032-3.1048 10.943-6.086 16.438-9.0625 5.865-2.2653 11.687-4.4996 17.656-6.6875zm191.78 3.125c5.8731 2.3725 11.608 4.7728 17.375 7.2188 5.4197 3.1684 10.794 6.3268 16.219 9.625 1.1467 11.987 2.7981 25.595 5 40.969-6.9354 13.105-14.07 28.968-21.469 48.5-12.989-6.3111-25.284-12.162-39.719-19.406-14.426-7.2395-26.465-13.58-39.281-20.219 11.239-17.605 19.668-32.826 26.031-46.219 13.643-7.4229 25.547-14.224 35.844-20.469zm-278.8 8.32c4.0467-0.007 8.2202 1.278 12.594 4 2.9471 1.8342 5.9964 4.625 9.0938 7.875-12.938 5.847-25.424 11.774-36.719 17.812-2.5551 1.366-4.952 2.724-7.4062 4.0938 5.2667-11.456 10.498-22.386 15.656-32.438 2.238-0.80471 4.4894-1.3398 6.7812-1.3438zm-11.094 3.375c-5.1846 10.231-10.42 21.235-15.688 32.812-4.8468 2.7791-9.4683 5.5881-13.844 8.375 8.84-19.98 18.55-34.51 28.71-40.82 0.26884-0.16715 0.54353-0.21863 0.8125-0.375zm59.156 0.25c-6.5309 3.7142-13.051 7.4312-19.531 11.281-0.60079-0.75405-1.1822-1.2647-1.7812-1.9688 7.0142-3.1244 13.959-6.2763 21.312-9.3125zm317.38 2.3438c2.2819 0.0785 4.5163 0.66015 6.7188 1.5312 4.8326 10.223 9.7297 21.334 14.625 32.969-2.4123-1.4517-4.7676-2.8925-7.2812-4.3438-11.092-6.4039-23.384-12.734-36.125-19 3.2035-3.1496 6.3681-5.8558 9.375-7.5938 4.4601-2.5778 8.6432-3.7016 12.688-3.5625zm-315.8 0.22c-1.361 10.277-3.0789 21.568-5.2812 34.281-0.35445-0.6917-0.70885-1.5451-1.0625-2.2188-4.4061-8.3934-8.738-15.189-13.031-20.906 6.424-3.8144 12.903-7.4765 19.375-11.156zm267.66 1.8438c7.2497 3.2745 14.092 6.6485 21 10-0.61384 0.67529-1.2266 1.1511-1.8438 1.875-6.3434-4.0542-12.758-7.9546-19.156-11.875zm59.125 1.6562c0.25957 0.16263 0.52215 0.23319 0.78125 0.40625 9.9349 6.6359 19.152 21.469 27.344 41.688-4.2515-2.9057-8.7844-5.8055-13.5-8.7188-4.8947-11.765-9.769-22.963-14.625-33.375zm-60.812 0.84375c6.3498 3.8896 12.703 7.7587 19 11.781-4.4801 5.5758-9.0383 12.219-13.719 20.469-0.37538 0.66168-0.74822 1.5078-1.125 2.1875-1.7862-12.777-3.1313-24.123-4.1562-34.438zm-189 2.25c15.073 8.7688 32.87 18.556 52.25 28.969-9.0367 4.4532-19.434 9.3849-29.406 14.156-9.6873-16.308-17.123-30.519-22.844-43.125zm-102.81 1.4375c0.68199 0.78184 1.3744 1.3658 2.0625 2.2188-19.596 11.708-38.686 23.925-56.719 36.094 2.1089-4.8374 4.2274-9.4598 6.3438-14.125 3.536-2.027 7.1069-4.0792 10.875-6.0938 11.475-6.1348 24.233-12.147 37.438-18.094zm214.69 0.375c-6.128 12.413-14.036 26.391-24.25 42.375-9.821-5.0992-20.074-10.344-28.969-15.094 19.732-9.7854 37.854-19.001 53.219-27.281zm-210.85 4.28c4.2425 5.6006 8.5746 12.351 13 20.781 0.93122 1.7739 1.8744 3.9392 2.8125 5.8438-3.3178 18.69-7.7417 40.539-12.969 64.625-22.643 9.7192-43.226 18.214-60.938 25.031-2.0526-0.559-4.3587-1.0791-6.2812-1.6562-9.1148-2.7363-16.57-5.7168-22.875-8.8125 0.0224-0.0621 0.0401-0.12539 0.0625-0.1875 8.3018-22.975 17.277-45.604 26.406-66.844 19.11-13.011 39.621-26.159 60.594-38.688 0.06-0.0359 0.12747-0.0579 0.1875-0.0937zm313.53 0.53125c13.004 6.375 25.543 12.806 36.812 19.312 3.6951 2.1334 7.2241 4.2679 10.688 6.4062 1.9722 4.7535 3.9473 9.448 5.9062 14.375-17.623-12.749-36.299-25.597-55.5-37.938 0.71221-0.82618 1.3899-1.4003 2.0938-2.1562zm-3.9688 4.5312c0.0512 0.0329 0.10503 0.0608 0.15625 0.0937 20.56 13.211 40.631 26.993 59.312 40.625 8.4316 21.526 16.64 44.453 24.188 67.688 0.0204 0.0628 0.0421 0.12472 0.0625 0.1875-6.4017 2.8876-13.959 5.5943-23.156 8.0312-1.9458 0.51555-4.2679 0.97573-6.3438 1.4688-17.48-7.4-37.77-16.58-60.09-27.04-4.4344-24.224-8.1079-46.193-10.812-64.969 0.99891-1.8712 2.0122-4.0089 3-5.75 4.6968-8.2789 9.2657-14.885 13.688-20.344zm-366.15 17.06c-2.1937 4.8884-4.4124 9.5614-6.5938 14.625-4.5609 3.1102-8.7388 6.1611-13.125 9.25 1.9092-5.3513 3.8634-10.4 5.875-15.219 4.35-2.8944 8.9506-5.7608 13.844-8.6562zm211 2.5c9.4145 5.0383 20.068 10.535 30.531 15.969-8.9 13.8-19.37 28.94-31.53 45.53-11.6-16.97-21.59-32.46-30.03-46.53 10.63-5.09 21.46-10.24 31.03-14.97zm211 4.375c4.7957 3.0535 9.2783 6.0903 13.531 9.125 1.8543 4.8851 3.6406 9.9912 5.375 15.406-4.2813-3.229-8.3575-6.4002-12.812-9.6562-2.0193-5.1435-4.0564-9.9069-6.0938-14.875zm-347.38 2.25c5.8859 12.534 11.901 27.416 18.031 45.375-10.102 4.4955-20.591 9.229-29.844 13.219 4.6481-21.511 8.7079-41.429 11.812-58.594zm-93.09 2.65c-1.8934 4.8056-3.7658 9.8621-5.5625 15.125-10.371 7.3834-20.187 14.642-29.25 21.688 0.0997-0.28573 0.10905-0.55621 0.21875-0.84375 4.2618-11.17 16.685-23.474 34.594-35.969zm365.56 1.7812c2.5423 17.254 5.9635 37.291 9.9062 58.938-9.1277-4.2941-19.476-9.359-29.438-14.188 6.7148-17.752 13.238-32.414 19.531-44.75zm-169.88 5.2188c8.6455 14.432 18.933 30.349 30.875 47.781-10.784 14.642-22.659 30.215-36.125 47.125-21.603-0.72053-41.144-1.8032-59.281-3.0938-5.5184-20.387-10.97-38.533-16.344-54.469 13.277-5.9227 25.853-11.431 40.625-18.25 14.772-6.8191 27.13-12.831 40.25-19.094zm262.84 0.5c17.484 13.069 29.481 25.762 33.375 37.062 0.10314 0.2993 0.0949 0.57797 0.1875 0.875-8.832-7.3404-18.402-14.935-28.531-22.656-1.6211-5.308-3.2991-10.425-5.0312-15.281zm-448.81 0.5625c-8.5082 20.018-16.867 41.065-24.625 62.531-0.97111-0.51414-1.694-1.0408-2.5938-1.5625 3.3225-14.103 6.8193-27.748 10.656-40.188 1.2586-4.0801 2.56-7.9888 3.875-11.844 4.1891-2.9758 8.327-5.9361 12.688-8.9375zm252.97 0c12.913 6.6899 25.047 13.106 39.594 20.406 14.543 7.2984 26.953 13.209 40.031 19.562-5.8945 15.761-11.94 33.726-18.125 53.938-18.166 0.69764-37.735 1.141-59.344 1.1562-12.912-17.347-24.259-33.29-34.562-48.281 12.512-17.043 23.291-32.632 32.406-46.781zm185.85 7.16c4.2629 3.1441 8.3142 6.2309 12.406 9.3438 1.1876 3.8931 2.3448 7.8528 3.4688 11.969 3.4294 12.559 6.4829 26.326 9.3438 40.531-0.91837 0.49306-1.6666 0.98567-2.6562 1.4688-7.05-21.7-14.71-43.03-22.56-63.31zm-455.62 4.6875c-0.87638 2.6689-1.7715 5.2641-2.625 8.0312-3.7742 12.236-7.2268 25.626-10.5 39.438-3.7709-2.4169-7.0797-4.8675-9.4375-7.4062-5.492-5.9134-7.3187-11.999-6.3125-18.5 8.889-6.9839 18.625-14.204 28.875-21.562zm472.06 7.6875c10.001 7.6873 19.502 15.263 28.156 22.531 0.78184 6.5174-1.2342 12.529-6.9062 18.25-2.4451 2.4662-5.8586 4.8276-9.7188 7.125-2.821-13.913-5.8141-27.396-9.1875-39.75-0.76553-2.8035-1.552-5.4509-2.3438-8.1562zm-504.16 16.4c-0.1397 6.3103 2.1452 12.436 7.3125 18 2.767 2.9793 6.5981 5.789 10.969 8.5-2.0977 9.0171-4.1243 18.133-6 27.594-6.928 2.2386-13.472 4.2592-19.25 5.8438-5.4691 1.4998-10.299 2.6201-14.781 3.5625-8.5738-6.968-15.567-11.425-21-13.344-2.9402-1.0383-5.5318-1.3937-7.75-0.96875 3.0229-4.7634 7.4892-10.329 13.562-16.594 9.3185-9.6117 22.014-20.722 36.938-32.594zm151.22 1.5938c5.2342 15.547 10.582 33.17 15.969 53-20.492-1.5086-38.834-3.3255-55.094-5.5 2.6508-11.483 5.3534-23.164 7.625-33.594 9.8012-4.2159 20.738-9.1177 31.5-13.906zm233 3.7812c10.609 5.1416 21.397 10.401 31.062 14.938 1.9296 10.496 4.2571 22.252 6.5312 33.812-16.324 1.6434-34.716 2.9106-55.25 3.75 6.035-19.656 11.914-37.124 17.656-52.5zm151.22 3.35c14.536 12.358 26.84 23.866 35.844 33.781 5.8558 6.4484 10.134 12.177 13 17.031-2.2031-0.49699-4.8089-0.22302-7.7812 0.71875-5.4984 1.7421-12.597 5.9905-21.406 12.688-4.445-1.0875-9.2458-2.3872-14.656-4.0625-5.7334-1.7753-12.197-4.0311-19.062-6.5-1.567-9.5214-3.2902-18.697-5.0938-27.781 4.4568-2.5669 8.3873-5.2063 11.25-8.0938 5.3548-5.401 7.848-11.459 7.9062-17.781zm-267.84 4.6562c9.8168 14.255 20.51 29.363 32.656 45.719-10.769-0.0121-21.791-0.0912-33.438-0.28125-11.656-0.19022-22.665-0.47284-33.438-0.8125 12.687-15.966 23.934-30.686 34.219-44.625zm-151.22 3.53c-2.1527 9.8419-4.794 21.041-7.2812 31.812-18.808-2.5963-34.568-5.6405-48-9.0312 16.266-6.3218 35.038-14.113 55.281-22.781zm302.19 4.9062c19.945 9.3217 38.452 17.714 54.5 24.562-13.533 2.95-29.371 5.5191-48.25 7.5-2.137-10.86-4.4177-22.145-6.25-32.062zm-397.59 6.3125c0.81833 0.46184 1.4431 0.95254 2.3125 1.4062-2.5416 7.0883-4.9448 14.201-7.3438 21.312 1.5798-7.8008 3.3001-15.234 5.0312-22.719zm5.0312 2.6562c6.432 3.1262 13.917 6.0546 23 8.7812 0.74721 0.22432 1.6715 0.43472 2.4375 0.65625-12.067 4.5879-22.854 8.4222-32.688 11.719 2.3798-7.0584 4.7287-14.12 7.25-21.156zm487.53 5.375c1.5007 7.6107 3.039 15.166 4.375 23.094-2.1884-7.2666-4.3838-14.533-6.7188-21.781 0.87689-0.42179 1.5169-0.88108 2.3438-1.3125zm-5.125 2.4688c2.2936 7.1243 4.4426 14.264 6.5938 21.406-9.7158-3.6139-20.378-7.8055-32.281-12.781 0.76629-0.19483 1.6896-0.36433 2.4375-0.5625 9.1592-2.4268 16.723-5.1506 23.25-8.0625zm-452.03 2.875c14.319 3.8426 31.35 7.2916 52.031 10.156-3.2625 14.068-6.2434 27.346-10.094 43.031-3.8504 15.685-7.3463 28.833-10.969 42.812-19.658-7.0369-36.374-11.902-50.844-15.125-10.268-11.644-19.561-21.729-27.938-30.375 1.0053-6.2477 2.0872-12.371 3.1875-18.531 1.8848-5.9946 3.7708-11.941 5.7812-17.969 11.439-3.7882 24.334-8.4273 38.844-14zm421.38 6.875c14.315 6.0407 27.069 11.092 38.375 15.25 1.8223 6.1228 3.491 12.165 5.1875 18.25 0.89384 6.1632 1.7656 12.285 2.5625 18.531-8.6638 8.3772-18.28 18.15-28.938 29.469-14.557 2.7478-31.392 7.0217-51.25 13.406-3.1617-14.079-6.2602-27.337-9.5938-43.125-3.3348-15.794-5.887-29.152-8.6875-43.312 20.761-2.189 37.91-5.0948 52.344-8.4688zm-526 3.625c1.252 0.0441 2.7374 0.34628 4.5 0.96875 4.4379 1.5672 10.56 5.4247 18.031 11.281-9.3194 1.7271-16.533 2.2902-21.188 1.625-3.701-0.52895-5.8297-1.7036-6.875-3.1562-0.52266-0.72631-0.8612-1.563-0.9375-2.5938-0.06133-0.82856 0.18023-1.8635 0.4375-2.9375 0.26658-1.033 0.5422-2.0313 0.96875-2.7188 0.54492-0.87826 1.2004-1.5045 2-1.9062 0.79957-0.40174 1.8105-0.6066 3.0625-0.5625zm159.66 0c16.665 2.2365 35.534 4.1567 56.594 5.6875 4.7248 17.564 9.4867 36.58 14.312 57.656-14.03 16.438-27.059 31.033-39.375 44.406-19.397-8.4045-36.992-15.45-52.812-21.188 3.6497-14.081 7.2124-27.345 11.094-43.156 3.8833-15.819 6.9007-29.229 10.188-43.406zm311 5.0938c2.8212 14.27 5.3869 27.759 8.75 43.688 3.3609 15.918 6.4701 29.285 9.6562 43.469-15.992 5.2167-33.788 11.737-53.438 19.5-11.882-13.779-24.439-28.817-37.938-45.719 5.5111-20.907 10.923-39.725 16.219-57.125 21.11-0.8435 40.015-2.1193 56.75-3.8125zm-410.75 0.34375c-0.97989 5.0346-1.9282 10.13-2.8438 15.25-1.5611 4.9669-3.0669 9.9228-4.5312 14.844-4.7238-4.7783-9.2297-9.1744-13.344-13-3.4523-3.2103-6.6197-6.0225-9.6562-8.5938 3.8809-0.87277 7.9864-1.8787 12.531-3.125 5.416-1.4852 11.447-3.3281 17.844-5.375zm159.5 0.46875c17.265 1.2126 35.734 2.2365 56.094 2.9375-6.7202 8.4072-13.626 16.987-21.031 25.969-7.4166 8.995-14.518 17.415-21.5 25.625-4.5701-19.862-9.08-37.808-13.562-54.531zm59.875 3.0312c11.452 0.37259 23.292 0.67171 35.75 0.875 12.457 0.20329 24.292 0.27998 35.75 0.28125 6.8488 9.1857 13.985 18.633 21.594 28.5 7.6095 9.8682 14.918 19.196 22.062 28.156-2.9095 11.075-5.8443 22.533-8.8125 34.625-2.9694 12.097-5.6685 23.614-8.2188 34.781-10.481 4.6338-21.28 9.4959-32.594 14.719-11.318 5.2249-22.015 10.277-32.344 15.25-10.151-5.3018-20.683-10.727-31.812-16.312-11.125-5.583-21.749-10.782-32.062-15.75-2.1855-11.25-4.5505-22.838-7.125-35.031-2.5716-12.179-5.1102-23.745-7.6562-34.906 7.434-8.724 15.04-17.79 22.969-27.406 7.9231-9.6093 15.358-18.827 22.5-27.781zm131.44 0.0625c-5.0264 16.57-10.096 34.39-15.312 54.094-6.7121-8.4358-13.535-17.109-20.656-26.344-7.109-9.219-13.745-18.002-20.188-26.625 20.368-0.0363 38.864-0.47661 56.156-1.125zm219.45 1.29c1.2528-0.003 2.2765 0.25989 3.0625 0.6875 0.78604 0.42761 1.4215 1.0419 1.9375 1.9375 0.3966 0.68837 0.64339 1.7028 0.875 2.7188 0.22793 1.0963 0.43302 2.1338 0.34375 2.9688-0.10989 1.0277-0.45392 1.8849-1 2.5938-1.0922 1.4178-3.2837 2.5296-7 2.9375-4.6773 0.51338-11.856-0.30983-21.125-2.3438 7.6542-5.6062 13.89-9.2352 18.375-10.656 1.782-0.56462 3.2784-0.84052 4.5312-0.84375zm-60.031 3.5c6.3326 2.2569 12.287 4.275 17.656 5.9375 4.4994 1.3932 8.5888 2.5326 12.438 3.5312-3.1186 2.4707-6.4138 5.1856-9.9688 8.2812-4.2324 3.6856-8.8472 7.9465-13.719 12.562-1.2972-4.9442-2.6709-9.9133-4.0625-14.906-0.75119-5.1722-1.5248-10.318-2.3438-15.406zm-576.56 0.34375c1.7703 1.4103 4.2487 2.2764 7.3438 2.7188 5.6989 0.81449 13.938 0.0763 24.75-2.125 3.5363 2.9107 7.3162 6.1699 11.469 10.031 4.3852 4.0778 9.2432 8.874 14.344 14.062-2.722 9.267-5.1188 18.306-7.4375 27.281-5.1326 0.37864-9.8222 1.0774-13.656 2.4375-7.1778 2.5462-12.05 6.9111-14.844 12.594-7.742-17.44-13.819-33.18-17.63-46.02-2.477-8.35-3.867-15.36-4.344-20.97zm610.44 10.031c10.754 2.5601 18.989 3.5664 24.719 2.9375 3.1079-0.34113 5.5909-1.1481 7.4062-2.5-0.65847 5.6004-2.2805 12.574-5.0312 20.844-4.2268 12.707-10.826 28.228-19.125 45.406-2.6088-5.7615-7.3234-10.287-14.406-13.062-3.7834-1.4828-8.4523-2.3286-13.562-2.875-2.0239-9.0434-4.1452-18.152-6.5625-27.5 5.273-5.0252 10.292-9.6574 14.812-13.594 4.2771-3.7245 8.1201-6.8621 11.75-9.6562zm-550.79 19.23c-1.1682 7.4223-2.3443 14.845-3.375 22.312-0.96341-0.00022-1.7329 0.15793-2.6562 0.1875 1.9332-7.4429 3.817-14.846 6.0312-22.5zm3 0.34375c7.1847 7.4701 14.936 15.885 23.5 25.531-0.76562-0.15496-1.6554-0.41826-2.4062-0.5625-9.3136-1.7892-17.32-2.6051-24.469-2.8125 1.0252-7.4171 2.2138-14.785 3.375-22.156zm519.31 8.125c1.969 7.7421 3.6189 15.229 5.3125 22.75-0.92478-0.06-1.6901-0.24994-2.6562-0.28125-0.78853-7.5177-1.7281-14.992-2.6562-22.469zm-2.9688 0.3125c0.91971 7.4027 1.8114 14.806 2.5938 22.25-7.1466-0.0244-15.174 0.54851-24.531 2.0312-0.75828 0.12016-1.664 0.33828-2.4375 0.46875 8.8829-9.3708 16.944-17.512 24.375-24.75zm-341.25 14.844c2.385 10.504 4.8119 21.226 7.2188 32.625 2.4079 11.404 4.5282 22.206 6.5938 32.781-18.367-8.8048-35.201-16.456-51.062-23.375 11.707-12.736 24.015-26.559 37.25-42.031zm-181.91 1.75c-3.0644 22.625-5.4276 45.155-7.1562 66.844-2.4774-4.6838-4.7567-9.2311-7.0938-13.812 0.61918-4.0229 1.258-8.0852 2.0312-12.281 2.359-12.801 5.6024-26.525 9.1875-40.562 1.0402-0.0456 1.9312-0.18173 3.0312-0.1875zm3 0.125c7.0208 0.17592 15 0.98626 24.344 2.7812 1.9727 0.37896 4.264 0.98211 6.3438 1.4375 12.541 14.244 26.87 31.277 42.438 50.375-6.5206 23.77-12.723 45.178-18.438 63.281-1.7179 1.2571-3.5678 2.731-5.2188 3.875-7.8262 5.4229-14.802 9.4067-21.156 12.406-0.0319-0.0519-0.0619-0.10438-0.0937-0.15625-12.782-20.808-24.902-41.939-35.812-62.312 1.7432-23.068 4.2795-47.274 7.5625-71.5 0.009-0.0629 0.0227-0.12459 0.0312-0.1875zm-9.1875 0.28125c-3.4927 13.752-6.6491 27.225-8.9688 39.812-0.52525 2.8503-0.94684 5.5701-1.4062 8.3438-5.6831-11.28-10.977-22.216-15.625-32.531 2.1237-6.21 6.5647-10.744 14.156-13.438 3.2759-1.1621 7.364-1.7928 11.844-2.1875zm353.53 0.5c12.743 15.922 24.574 30.152 35.875 43.281-16.081 6.3983-33.166 13.486-51.812 21.688 2.4092-10.501 4.9092-21.213 7.6875-32.531 2.7799-11.324 5.5212-22.009 8.25-32.438zm-308.64 4.58c13.469 3.2136 28.857 7.7837 46.719 14.188-2.7862 10.71-5.6293 21.864-8.2812 31.594-13.93-17.05-26.96-32.65-38.44-45.78zm487.41 3.1562c0.008 0.0734 0.0237 0.14533 0.0312 0.21875 2.4908 24.32 4.2291 48.606 5.2188 71.719-11.567 20.002-24.361 40.719-37.812 61.094-0.0335 0.0507-0.0602 0.10553-0.0937 0.15625-6.2494-3.2047-13.11-7.3908-20.75-13.062-1.6044-1.191-3.3956-2.7262-5.0625-4.0312-5.1244-18.293-10.597-39.882-16.344-63.875 16.184-18.581 31.032-35.173 44.031-49 2.0909-0.38675 4.3933-0.90472 6.375-1.2188 9.3875-1.4875 17.389-2.0516 24.406-2zm3.0312 0c1.1051 0.0419 1.9878 0.20103 3.0312 0.28125 3.1264 14.151 5.9031 27.968 7.8438 40.844 0.63525 4.2146 1.169 8.3068 1.6562 12.344-2.4885 4.5087-4.93 8.9871-7.5625 13.594-1.02-21.738-2.6437-44.344-4.9688-67.062zm6.1875 0.625c4.4473 0.54134 8.5235 1.2979 11.75 2.5625 7.4995 2.9392 11.767 7.6306 13.688 13.906-4.9794 10.152-10.613 20.888-16.656 31.969-0.3679-2.7804-0.69411-5.5162-1.125-8.375-1.9073-12.654-4.615-26.207-7.6562-40.062zm-45.031 3.5938c-11.901 12.742-25.445 27.895-39.906 44.469-2.3288-9.7939-4.7882-21.038-7.2188-31.812 18.045-5.8114 33.568-9.8856 47.125-12.656zm-523.56 7.875c4.7701 10.441 10.102 21.404 15.875 32.75-0.857 5.51-1.557 10.87-2.105 16.01-10.083-19.36-15.395-36-14-47.88 0.03711-0.31585 0.17305-0.56581 0.21875-0.875zm121.47 0c15.434 5.6062 32.552 12.463 51.438 20.625-13.956 15.08-26.85 28.269-38.688 39.625-7.3278-9.2356-14.76-18.656-21.5-26.938 2.8155-10.294 5.7828-21.909 8.75-33.312zm352.08 5.76c2.5953 11.502 5.2078 23.207 7.6875 33.594-7.0001 8.0496-14.726 17.205-22.344 26.188-11.466-11.741-23.943-25.307-37.406-40.844 19.133-7.5384 36.459-13.839 52.062-18.938zm121.44 4c0.0323 0.28736 0.1315 0.51969 0.15625 0.8125 1.0066 11.911-4.8215 28.384-15.531 47.406-0.37973-5.1551-0.89694-10.506-1.5625-16.031 6.1376-11.147 11.831-21.912 16.938-32.188zm-419.19 12.156c16.66 7.2492 34.475 15.363 53.938 24.719 4.1049 21.223 7.4409 40.529 10.219 58.5-18.652 9.9183-35.157 19.245-49.5 28.031-8.7263-11.623-16.88-22.651-26.812-35.531-9.9369-12.886-18.536-23.601-27.562-35 12.146-11.641 25.381-25.197 39.719-40.719zm242.75 3.9688c13.817 15.973 26.62 29.943 38.375 41.969-9.3978 11.103-18.33 21.532-28.688 34.094-10.355 12.558-18.893 23.317-28 34.656-14.049-9.2496-30.213-19.134-48.531-29.656 3.3624-17.868 7.2995-37.052 12.094-58.125 19.776-8.7242 37.849-16.23 54.75-22.938zm-306.84 10.9c6.3591 7.8273 13.465 16.892 20.344 25.562-13.763 13.092-25.971 23.517-37 31.906 5.2016-16.667 10.809-36.225 16.656-57.469zm-93.44 0.66c2.4504 4.7555 4.7492 9.3952 7.3438 14.25-0.41324 5.5217-0.61706 10.723-0.9375 16.094-2.9967-4.8323-5.7341-9.5138-8.25-14.094 0.44897-5.2142 1.0556-10.609 1.8438-16.25zm463.84 5.4062c5.1462 21.401 10.099 41.123 14.75 57.938-10.741-8.739-22.592-19.543-35.906-33.062 7.1543-8.4372 14.548-17.263 21.156-24.875zm93.375 3.6562c0.60358 5.6568 1.033 11.061 1.3125 16.281-2.6662 4.5007-5.5624 9.1058-8.7188 13.844-0.14441-5.3532-0.20608-10.526-0.4375-16.031 2.7724-4.8027 5.2208-9.3869 7.8438-14.094zm-342.34 1.77c9.7032 4.6862 19.583 9.5222 30 14.75 10.414 5.2259 20.197 10.273 29.75 15.25-18.344 8.8742-34.852 17.284-50.156 25.375-2.6602-17.106-5.7455-35.364-9.5938-55.375zm127.25 2.0625c-4.502 19.886-8.2191 38.013-11.438 55.031-15.038-8.5888-31.26-17.497-49.312-26.969 9.7141-4.6647 19.667-9.3958 30.25-14.281 10.587-4.8871 20.645-9.4126 30.5-13.781zm-332.06 6.3125c10.343 19.127 21.59 38.776 33.531 58.219-1.005 0.43741-1.8771 0.65408-2.8438 1.0312-8.9466-11.382-17.454-22.627-24.781-33.375-2.3982-3.5175-4.6243-6.9532-6.8125-10.375 0.28493-5.1285 0.53451-10.221 0.90625-15.5zm-12.344 2.5625c2.5719 4.4677 5.387 9.0423 8.375 13.719-0.69473 12.72-1.1694 24.92-1.3125 36.406-0.15719-0.25006-0.3474-0.42891-0.5-0.6875-6.0751-10.295-7.9586-27.651-6.5625-49.438zm117.94 5.5c8.962 11.319 17.484 21.933 27.344 34.719 9.8514 12.775 17.931 23.714 26.594 35.25-17.765 10.986-31.956 21.038-43.5 30.344-15.508 0.76834-29.172 1.7477-41.156 2.9062-4.3008-4.7285-8.4544-9.4388-12.625-14.188-3.473-5.1559-6.8906-10.29-10.312-15.562 4.166-11.293 8.5656-24.263 13.25-39.062 11.941-8.8016 25.255-20.008 40.406-34.406zm430.88 0.6875c0.19915 5.2832 0.28881 10.369 0.40625 15.5-2.3045 3.3577-4.6375 6.7405-7.1562 10.188-7.6756 10.504-16.56 21.446-25.875 32.531-0.9568-0.41009-1.8191-0.65309-2.8125-1.125 12.566-19.037 24.479-38.32 35.438-57.094zm12.281 3c0.6811 21.806-1.7828 39.101-8.1875 49.188-0.1684 0.2652-0.38937 0.4318-0.5625 0.6875 0.23234-11.482 0.18499-23.703-0.0937-36.438 3.1404-4.5782 6.1262-9.0544 8.8438-13.438zm-118.06 1.625c14.652 14.862 27.584 26.477 39.219 35.656 4.2055 14.97 8.1994 28.093 12 39.531-3.6428 5.2304-7.3088 10.297-11 15.406-4.2603 4.5406-8.4894 9.0458-12.875 13.562-11.953-1.5514-25.595-2.9743-41.094-4.25-11.227-9.6697-25.091-20.171-42.469-31.719 9.0365-11.251 17.484-21.924 27.75-34.375 10.273-12.459 19.141-22.791 28.469-33.812zm-431.91 7.125c1.5412 2.3507 3.024 4.6684 4.6562 7.0625 7.2136 10.58 15.554 21.61 24.312 32.781-4.2577 1.4503-8.2522 2.5198-11.719 2.7812-8.0466 0.60682-13.951-1.7547-18.406-6.5938 0.0819-11.303 0.51901-23.43 1.1562-36.031zm269.12 2.8438c19.149 10.021 36.314 19.469 52.094 28.5-3.8748 20.768-6.8334 39.495-8.9062 56.188-14.537-0.42468-28.257-0.92193-44.531-1.1875-16.267-0.26546-29.994-0.20006-44.531-0.25-1.5278-16.762-3.927-35.569-7.125-56.469 16.069-8.5136 33.53-17.388 53-26.781zm269.09 5.9375c0.22563 12.613 0.25575 24.764-0.0312 36.062-4.609 4.6798-10.58 6.8368-18.594 5.9688-3.4514-0.37388-7.3925-1.5717-11.594-3.1562 9.1132-10.874 17.792-21.634 25.344-31.969 1.7088-2.3386 3.2586-4.6081 4.875-6.9062zm-475.88 16.219c-3.9348 12.288-7.6663 23.104-11.219 32.844-4.0385-6.2675-8.0983-12.51-12.031-18.875 6.4558-3.0798 13.453-7.0976 21.25-12.5 0.63132-0.43745 1.3594-1.0154 2-1.4688zm151 6.0938c3.0908 20.326 5.377 38.626 6.875 54.969-11.793-0.0292-23.788-0.10626-34.469 0-6.2931-8.6199-13.497-18.195-20.562-27.625 13.998-8.5659 30.013-17.675 48.156-27.344zm261.81 0.67c0.61566 0.46647 1.299 1.0805 1.9062 1.5312 7.6082 5.648 14.466 9.8685 20.812 13.156-4.136 6.2291-8.3867 12.34-12.625 18.469-3.2278-9.8362-6.5679-20.768-10.094-33.156zm-151.16 1.1562c17.814 10.254 33.51 19.89 47.219 28.906-7.3654 9.1893-14.87 18.532-21.438 26.938-10.668-0.45463-22.653-0.80068-34.438-1.1562 2.0304-16.283 4.9047-34.478 8.6562-54.688zm-325.18 7.18c4.849 4.0538 11.075 6.103 18.656 5.5312 4.052-0.30557 8.6276-1.5563 13.469-3.2812 5.7403 7.2603 11.618 14.512 17.844 21.875-2.5737 6.825-5.07 13.204-7.4375 18.719-2.2346 5.2047-4.3505 9.6927-6.4062 13.781-10.813 2.3607-18.67 5.0076-23.562 8.0625-2.6424 1.6498-4.5423 3.4718-5.5938 5.4688-1.8358-5.3309-3.3906-12.296-4.5-20.938-1.7056-13.285-2.4931-30.137-2.4688-49.219zm37.594 0.25c3.9612 6.4131 8.0565 12.715 12.125 19.031-5.1216-6.1077-9.8459-12.096-14.625-18.125 0.85725-0.3464 1.6181-0.5163 2.5-0.90625zm464.09 7.5625c0.88029 0.42445 1.6436 0.62105 2.5 1-4.9647 5.8594-9.879 11.698-15.188 17.625 4.2685-6.1744 8.523-12.35 12.688-18.625zm37.594 1.0312c-0.59885 19.057-1.9257 35.849-4.0625 49.062-1.3901 8.5961-3.18 15.514-5.1875 20.781-0.98574-2.03-2.8192-3.89-5.4062-5.625-4.7884-3.2114-12.559-6.1326-23.281-8.8438-1.9228-4.156-3.8721-8.7206-5.9375-14-2.1829-5.5798-4.4981-12.014-6.8438-18.906 6.4772-7.1723 12.576-14.259 18.562-21.344 4.7822 1.8819 9.3039 3.3124 13.344 3.75 7.5468 0.81751 13.837-0.99417 18.812-4.875zm-375.5 11.062c6.6314 8.8494 13.582 18.022 19.531 26.156-22.017 0.2553-42.349 0.70658-59.781 1.5 10.913-8.5313 24.097-17.678 40.25-27.656zm211.19 3.4375c15.795 10.485 28.661 20.065 39.281 28.938-17.385-1.3604-37.679-2.4647-59.656-3.4375 6.2097-7.9331 13.461-16.874 20.375-25.5zm-322.75 3.375c3.3174 3.8958 6.7012 7.7888 10.125 11.688 2.9227 4.3368 5.8339 8.6435 8.7812 12.875-6.676 0.71358-12.916 1.4505-18.469 2.2812-4.6558 0.69658-8.8509 1.4491-12.75 2.2188 1.7382-3.58 3.5147-7.4172 5.375-11.75 2.2177-5.1652 4.5471-11.028 6.9375-17.312zm434.03 7.125c2.1804 6.347 4.299 12.242 6.3438 17.469 1.7161 4.3865 3.3811 8.3058 5 11.938-3.8771-0.89807-8.018-1.7755-12.656-2.625-5.516-1.0103-11.735-1.9762-18.375-2.9062 3.0934-4.1462 6.1466-8.3723 9.2188-12.625 3.5243-3.7591 7.0494-7.4905 10.469-11.25zm-290.65 14.97c7.8908-0.0489 17.657 0.13474 26.125 0.15625 1.6523 18.904 2.1609 34.938 1.8438 48.781-9.7802-14.448-21.549-31.011-34.5-48.812 2.3645-0.0214 4.1133-0.11002 6.5312-0.125zm-10.16 0.19c14.501 19.895 27.355 38.072 37.938 53.812-0.0885 2.1384-0.0831 4.517-0.21875 6.5312-0.63985 9.5008-1.8522 17.443-3.4688 24.281-0.0732-0.009-0.14557-0.0222-0.21875-0.0312-24.242-2.9805-48.297-6.7016-71.031-10.875-16.939-15.738-34.304-32.807-51.188-50.469-0.0461-0.0482-0.0789-0.10805-0.125-0.15625 4.5139-5.3769 10.118-11.098 17.344-17.281 1.5267-1.3064 3.4405-2.72 5.0938-4.0625 18.961-0.92416 41.228-1.4865 65.875-1.75zm39.312 0c14.428 0.0505 28.024-0.0132 44.156 0.25 16.143 0.26344 29.757 0.73552 44.188 1.1562-2.4868 20.737-3.485 38.111-3.4062 52.938-9.0734 12.611-16.838 23.904-23.406 34-6.3096 0.41002-12.504 0.70185-18.75 1-6.277-0.50447-12.506-1.005-18.844-1.625-6.2328-10.3-13.63-21.858-22.281-34.75 0.56108-14.805 0.14968-32.183-1.6562-52.969zm91.375 1.5c11.05 0.33276 22.559 0.61129 32.625 1.0312-13.525 17.369-25.847 33.536-36.094 47.656 0.13519-13.845 1.2008-29.851 3.4688-48.688zm-201.66 0.47c-0.6029 0.50558-1.3524 1.0618-1.9375 1.5625-7.2003 6.1615-12.851 11.887-17.469 17.344-5.1526-5.4186-10.187-10.91-15.219-16.406 10.328-0.96038 21.732-1.818 34.625-2.5zm237.91 0.75c24.611 1.0671 46.837 2.3649 65.75 3.9062 1.6124 1.3988 3.4822 2.8602 4.9688 4.2188 7.0307 6.4254 12.474 12.315 16.812 17.844-0.0527 0.0517-0.10352 0.10458-0.15625 0.15625-17.457 17.106-35.364 33.6-52.812 48.781-22.858 3.4294-47.049 6.3433-71.375 8.5312-0.0622 0.006-0.12529-0.006-0.1875 0-1.3909-6.8841-2.3582-14.834-2.6875-24.344-0.0697-2.014 0.0187-4.3951 0-6.5312 11.097-15.397 24.532-33.135 39.688-52.562zm-279.31 2.375c5.5451 7.9019 11.087 15.438 16.656 22.844-2.894 4.2385-5.2696 8.3505-6.5938 12.188-2.4808 7.1887-2.0962 13.716 0.59375 19.438-18.468-4.8286-34.55-9.8779-46.969-14.906-8.0754-3.2697-14.405-6.5568-19.094-9.6875 2.1984-0.50936 4.4204-1.8953 6.6875-4.0312 4.1979-3.9552 8.7813-10.863 13.812-20.719 4.4679-0.94609 9.3504-1.8516 14.938-2.6875 5.9284-0.88698 12.723-1.684 19.969-2.4375zm4.5312 1.3438c5.1142 5.5858 10.231 11.182 15.469 16.688-0.61071 0.7651-0.97038 1.4668-1.5312 2.2188-4.6499-6.1999-9.2985-12.35-13.938-18.906zm345.66 0.56c12.855 1.1018 24.215 2.3601 34.5 3.6562-5.2109 5.331-10.421 10.657-15.75 15.906-4.4385-5.6071-9.8753-11.54-16.875-17.938-0.56682-0.51802-1.2906-1.1015-1.875-1.625zm-389.03 4.16c-4.4675 8.3814-8.5108 14.396-11.938 17.625-2.7211 2.5638-4.9625 3.4947-6.75 3.4062-0.89373-0.0442-1.7716-0.32324-2.625-0.90625-0.0102-0.007-0.021-0.0242-0.0312-0.0312-0.66416-0.45931-1.311-1.2574-1.9688-2.0938-0.65111-0.86145-1.2572-1.6995-1.5312-2.4688-0.3469-0.97362-0.43444-1.9056-0.25-2.7812 0.36887-1.7512 1.86-3.6763 5.0312-5.6562 3.9939-2.4936 10.82-4.9036 20.062-7.0938zm430.28 0.34c7.2216 0.98995 13.976 2.0132 19.875 3.0938 5.5772 1.0215 10.428 2.0919 14.875 3.1875 4.7014 9.9981 9.0625 17.039 13.125 21.125 2.1873 2.1999 4.3594 3.6645 6.5312 4.25-4.7882 2.9744-11.233 6.0597-19.406 9.0625-12.571 4.6186-28.8 9.1218-47.406 13.344 2.8697-5.6278 3.4621-12.146 1.2188-19.406-1.2-3.8839-3.4269-8.0685-6.1875-12.406 5.7985-7.2089 11.584-14.546 17.375-22.25zm-4.66 1.28c-4.8152 6.3529-9.6231 12.311-14.438 18.312-0.53333-0.76562-0.88658-1.4697-1.4688-2.25 5.3828-5.3006 10.643-10.678 15.906-16.062zm43.312 6.0625c9.1413 2.4868 15.878 5.0695 19.781 7.6875 3.105 2.0824 4.5322 4.0814 4.8438 5.8438 0.15577 0.88116 0.066 1.7882-0.3125 2.75-0.30886 0.78485-0.94148 1.6295-1.6562 2.5-0.63703 0.74954-1.2746 1.4526-1.9062 1.875-0.0479 0.0432-0.10746 0.0818-0.15625 0.125-0.86269 0.54266-1.7399 0.79763-2.625 0.8125-1.7894 0.0301-3.989-0.9738-6.625-3.625-3.3146-3.3337-7.1595-9.4668-11.344-17.969zm-408 6.5312c15.774 16.498 31.907 32.379 47.781 47.25-5.2012-0.98251-10.185-2.0029-15.219-3.0312-2.7585-2.9916-5.5147-6.0301-8.3125-9.25-8.5387-9.827-17.259-20.912-26-32.469 0.61677-0.84738 1.0638-1.6304 1.75-2.5zm-3.5625 5.0938c8.5811 11.315 17.16 22.174 25.562 31.844 1.8971 2.1834 3.7466 4.1967 5.625 6.2812-12.34-2.5853-24.179-5.239-35.125-8.0312-3.547-5.5391-4.3198-11.841-1.6875-19.469 1.1321-3.2806 3.1466-6.8831 5.625-10.625zm350.19 0.5625c0.64952 0.88137 1.0738 1.6738 1.6562 2.5312-9.1182 11.273-18.203 22.076-27.062 31.625-2.9019 3.1275-5.7698 6.0682-8.625 8.9688-5.0594 0.86253-10.057 1.7511-15.281 2.5625 16.351-14.344 33.01-29.714 49.312-45.688zm3.375 5.2188c2.3526 3.818 4.2574 7.4676 5.2812 10.781 2.3795 7.7013 1.4035 13.99-2.3125 19.406-11.034 2.4345-22.954 4.7243-35.375 6.9062 1.9498-2.0266 3.8719-3.9998 5.8438-6.125 8.7099-9.3871 17.62-19.944 26.562-30.969zm-218.91 21.812c7.156 10.741 13.286 20.398 18.688 29.25-7.4096-0.74945-14.83-1.4828-22.25-2.375 1.6152-6.964 2.8319-14.918 3.4688-24.375 0.052-0.77163 0.0485-1.711 0.0937-2.5zm83.438 1.375c0.0193 0.78132-0.0265 1.7042 0 2.4688 0.3282 9.4785 1.2676 17.484 2.6562 24.5-7.4467 0.64985-14.88 1.1488-22.312 1.6562 5.6879-8.6731 12.151-18.12 19.656-28.625zm-219.06 4.9062c11.131 2.7783 23.038 5.4409 35.5 8 3.7732 4.0898 7.5421 7.9618 11.219 11.594-21.442-4.1883-37.771-10.409-46.188-18.906-0.21575-0.21781-0.32532-0.46732-0.53125-0.6875zm354.38 5.7812c-0.20794 0.20797-0.31405 0.45084-0.53125 0.65625-8.6794 8.2084-25.188 13.887-46.719 17.375 3.7814-3.5008 7.6391-7.2666 11.531-11.219 12.536-2.1504 24.505-4.3997 35.719-6.8125zm-313.72 3.25c5.261 1.0522 10.321 2.1551 15.75 3.1562 4.0442 3.7514 7.9529 7.164 11.938 10.75-5.6406-0.66987-11.012-1.4869-16.156-2.375-3.7847-3.5918-7.625-7.4115-11.531-11.531zm21.281 4.0938c21.411 3.8405 43.814 7.3066 66.469 10.094-0.283 1.0529-0.66281 1.8576-0.96875 2.8438-14.483-0.1013-28.585-0.43376-41.562-1.4062-4.2625-0.31943-8.3512-0.73146-12.406-1.1562-3.8298-3.4187-7.6384-6.7951-11.531-10.375zm251.56 0.34375c-4.0486 4.0008-8.0283 7.6815-11.938 11.156-5.1734 0.72029-10.556 1.3268-16.219 1.8125 4.1053-3.4592 8.1421-6.7208 12.312-10.344 5.4549-0.82295 10.555-1.7456 15.844-2.625zm-21.438 3.4062c-4.0124 3.455-7.9311 6.7045-11.875 10-4.06 0.29154-8.1744 0.57014-12.438 0.75-13.011 0.54894-27.104 0.43471-41.594 0.0625-0.27232-0.99022-0.59628-1.8194-0.84375-2.875 22.732-2.0463 45.227-4.798 66.75-7.9375zm-160.6 6.68c7.5194 0.90587 15.021 1.6776 22.531 2.4375-8.0031 0.19762-15.681 0.11647-23.406 0.0937 0.26552-0.89324 0.62843-1.5908 0.875-2.5312zm-75.188 0.875c5.0922 0.77374 10.424 1.421 15.938 2 9.5103 8.4722 18.767 16.447 27.656 23.719-0.30242-0.0337-0.56854 0.012-0.875-0.0312-11.828-1.6679-26.569-11.03-42.719-25.688zm165.97 0.625c0.21509 0.94303 0.51462 1.6656 0.75 2.5625-7.6739-0.22824-15.309-0.45158-23.25-0.90625 7.4944-0.51279 14.992-0.99938 22.5-1.6562zm-145.03 1.84c2.8012 0.261 5.5454 0.53326 8.4375 0.75 12.77 0.95701 26.586 1.3511 40.781 1.4688-1.518 4.2184-3.1731 8.0092-5.125 10.875-4.5372 6.6616-10.074 9.7778-16.625 10.25-8.79-7.11-18.02-14.99-27.47-23.34zm99.562 1.1562c5.1953 0.41712 10.371 0.79215 15.5 1.125-3.6069 5.6679-6.9048 11.013-9.7188 15.875-2.3626 4.0818-4.4183 7.8099-6.25 11.344-1.7128-3.5852-3.6203-7.3833-5.8438-11.531-2.6532-4.9498-5.7684-10.406-9.1875-16.188 5.1283-0.16514 10.303-0.37809 15.5-0.625zm120.56 0.3125c-16.62 14.123-31.655 23-43.531 24.281-0.30759 0.0332-0.57175-0.0239-0.875 0 9.1224-6.9778 18.624-14.623 28.406-22.781 5.5275-0.39859 10.887-0.89315 16-1.5zm-139.5 0.46875c3.7244 6.2566 7.1692 12.156 10 17.438 2.6736 4.9879 4.8674 9.4402 6.7812 13.594-4.8949 9.9238-7.7128 17.739-8.375 23.469-0.35967 3.1117-0.10581 5.7088 0.8125 7.7812-5.3182-1.8866-11.756-5.0016-19.219-9.5312-11.447-6.9479-25.101-16.838-40-28.75 6.1939-1.263 11.657-4.8716 15.938-11.156 2.2904-3.3628 4.1414-7.7251 5.8125-12.594 9.2624 0.039 18.604 0.0265 28.25-0.25zm37.844 0.59375c9.6319 0.59115 18.96 0.95543 28.219 1.2188 1.5101 4.9105 3.2302 9.3196 5.4062 12.75 4.0698 6.4157 9.4194 10.22 15.562 11.688-15.271 11.412-29.244 20.839-40.906 27.406-7.5806 4.2689-14.101 7.1907-19.469 8.9062 0.9726-2.0364 1.2565-4.6456 1-7.75-0.47447-5.7423-3.0028-13.624-7.5625-23.688 2.0495-4.0918 4.3812-8.5038 7.2188-13.406 3.0015-5.1857 6.605-10.994 10.531-17.125zm80.625 0.71875c-9.7123 8.0332-19.182 15.623-28.188 22.438-6.5321-0.68582-11.933-3.9752-16.25-10.781-1.8603-2.9327-3.4316-6.7877-4.8125-11.062 14.195 0.34587 28.015 0.44617 40.812-0.0937 2.892-0.12202 5.6346-0.33096 8.4375-0.5zm-100.08 33.44c3.7604 8.7064 5.9252 15.625 6.3125 20.312 0.30786 3.7259-0.3789 6.0639-1.5625 7.4062-0.5918 0.67118-1.3558 1.165-2.3438 1.4688-0.75959 0.23354-1.7701 0.25034-2.8125 0.25-2.4958-0.049-4.2494-0.62476-5.2812-1.875-1.1392-1.3803-1.7105-3.7549-1.2812-7.4688 0.54059-4.6769 2.9189-11.503 6.9688-20.094z" />
  </g>
  <metadata
     id="metadata7">
    <rdf:RDF>
      <cc:Work>
        <dc:format>image/svg+xml</dc:format>
        <dc:type
           rdf:resource="http://purl.org/dc/dcmitype/StillImage" />
        <cc:license
           rdf:resource="http://creativecommons.org/licenses/publicdomain/" />
        <dc:publisher>
          <cc:Agent
             rdf:about="http://openclipart.org/">
            <dc:title>Openclipart</dc:title>
          </cc:Agent>
        </dc:publisher>
        <dc:title></dc:title>
      </cc:Work>
      <cc:License
         rdf:about="http://creativecommons.org/licenses/publicdomain/">
        <cc:permits
           rdf:resource="http://creativecommons.org/ns#Reproduction" />
        <cc:permits
           rdf:resource="http://creativecommons.org/ns#Distribution" />
        <cc:permits
           rdf:resource="http://creativecommons.org/ns#DerivativeWorks" />
      </cc:License>
    </rdf:RDF>
  </metadata>
</svg>
